<?xml version="1.0" encoding="UTF-8" standalone="no"?>
<svg
   width="700pt"
   height="700pt"
   version="1.1"
   viewBox="0 0 700 700"
   id="svg161"
   sodipodi:docname="Ice.svg"
   inkscape:version="1.1.1 (3bf5ae0d25, 2021-09-20)"
   xmlns:inkscape="http://www.inkscape.org/namespaces/inkscape"
   xmlns:sodipodi="http://sodipodi.sourceforge.net/DTD/sodipodi-0.dtd"
   xmlns="http://www.w3.org/2000/svg"
   xmlns:svg="http://www.w3.org/2000/svg">
  <sodipodi:namedview
     id="namedview163"
     pagecolor="#505050"
     bordercolor="#ffffff"
     borderopacity="1"
     inkscape:pageshadow="0"
     inkscape:pageopacity="0"
     inkscape:pagecheckerboard="1"
     inkscape:document-units="pt"
     showgrid="false"
     inkscape:zoom="0.95035714"
     inkscape:cx="466.14055"
     inkscape:cy="466.66667"
     inkscape:window-width="3840"
     inkscape:window-height="2066"
     inkscape:window-x="2869"
     inkscape:window-y="-11"
     inkscape:window-maximized="1"
     inkscape:current-layer="svg161" />
  <defs
     id="defs65">
    <symbol
       id="u"
       overflow="visible">
      <path
         d="m3.6562-0.21875c-0.1875 0.09375-0.38672 0.16797-0.59375 0.21875-0.19922 0.050781-0.40625 0.078125-0.625 0.078125-0.66797 0-1.1992-0.17969-1.5938-0.54688-0.38672-0.375-0.57812-0.87891-0.57812-1.5156 0-0.64453 0.19141-1.1484 0.57812-1.5156 0.39453-0.375 0.92578-0.5625 1.5938-0.5625 0.21875 0 0.42578 0.027344 0.625 0.078125 0.20703 0.054687 0.40625 0.125 0.59375 0.21875v0.82812c-0.1875-0.125-0.375-0.21875-0.5625-0.28125-0.17969-0.0625-0.37109-0.09375-0.57812-0.09375-0.36719 0-0.65625 0.12109-0.875 0.35938-0.21094 0.23047-0.3125 0.55469-0.3125 0.96875 0 0.40625 0.10156 0.73047 0.3125 0.96875 0.21875 0.23047 0.50781 0.34375 0.875 0.34375 0.20703 0 0.39844-0.023437 0.57812-0.078125 0.1875-0.0625 0.375-0.16016 0.5625-0.29688z"
         id="path2" />
    </symbol>
    <symbol
       id="c"
       overflow="visible">
      <path
         d="m2.6875-2.1719c-0.085938-0.039063-0.16797-0.070313-0.25-0.09375-0.085938-0.019531-0.16797-0.03125-0.25-0.03125-0.25 0-0.44531 0.085937-0.57812 0.25-0.125 0.15625-0.1875 0.38281-0.1875 0.67188v1.375h-0.96875v-2.9844h0.96875v0.48438c0.11328-0.19531 0.25-0.33594 0.40625-0.42188 0.16406-0.09375 0.35938-0.14062 0.57812-0.14062h0.10938c0.039063 0 0.09375 0.007812 0.15625 0.015625z"
         id="path5" />
    </symbol>
    <symbol
       id="a"
       overflow="visible">
      <path
         d="m3.4375-1.5v0.26562h-2.2344c0.03125 0.23047 0.11328 0.40234 0.25 0.51562 0.13281 0.10547 0.32812 0.15625 0.57812 0.15625 0.20703 0 0.41406-0.023438 0.625-0.078125 0.20703-0.0625 0.42188-0.15625 0.64062-0.28125v0.73438c-0.21875 0.09375-0.44531 0.16406-0.67188 0.20312-0.23047 0.039062-0.45312 0.0625-0.67188 0.0625-0.54297 0-0.96484-0.13281-1.2656-0.40625-0.30469-0.28125-0.45312-0.67188-0.45312-1.1719 0-0.47656 0.14453-0.85938 0.4375-1.1406 0.30078-0.28125 0.70703-0.42188 1.2188-0.42188 0.46875 0 0.84375 0.14062 1.125 0.42188s0.42188 0.66406 0.42188 1.1406zm-0.96875-0.32812c0-0.17578-0.058594-0.31641-0.17188-0.42188-0.10547-0.11328-0.24219-0.17188-0.40625-0.17188-0.1875 0-0.33984 0.054687-0.45312 0.15625-0.11719 0.10547-0.1875 0.25-0.21875 0.4375z"
         id="path8" />
    </symbol>
    <symbol
       id="e"
       overflow="visible">
      <path
         d="m1.7969-1.3438c-0.19922 0-0.35156 0.039062-0.45312 0.10938-0.09375 0.0625-0.14062 0.16406-0.14062 0.29688 0 0.11719 0.035156 0.21094 0.10938 0.28125 0.082031 0.0625 0.19531 0.09375 0.34375 0.09375 0.17578 0 0.32812-0.0625 0.45312-0.1875s0.1875-0.28516 0.1875-0.48438v-0.10938zm1.4688-0.35938v1.7031h-0.96875v-0.4375c-0.125 0.17969-0.27344 0.30859-0.4375 0.39062-0.15625 0.082031-0.35156 0.125-0.57812 0.125-0.3125 0-0.57031-0.085938-0.76562-0.26562-0.1875-0.1875-0.28125-0.42188-0.28125-0.70312 0-0.35156 0.11719-0.61328 0.35938-0.78125 0.23828-0.16406 0.61719-0.25 1.1406-0.25h0.5625v-0.0625c0-0.15625-0.0625-0.26562-0.1875-0.32812-0.11719-0.070312-0.29688-0.10938-0.54688-0.10938-0.21094 0-0.40234 0.023437-0.57812 0.0625-0.17969 0.042969-0.33984 0.10156-0.48438 0.17188v-0.71875c0.19531-0.050781 0.39844-0.085938 0.60938-0.10938 0.20703-0.03125 0.41406-0.046875 0.625-0.046875 0.53906 0 0.92969 0.10938 1.1719 0.32812 0.23828 0.21094 0.35938 0.55469 0.35938 1.0312z"
         id="path11" />
    </symbol>
    <symbol
       id="d"
       overflow="visible">
      <path
         d="m1.5-3.8438v0.85938h0.98438v0.67188h-0.98438v1.2812c0 0.13672 0.023438 0.23047 0.078125 0.28125 0.0625 0.042969 0.17578 0.0625 0.34375 0.0625h0.48438v0.6875h-0.8125c-0.38672 0-0.65625-0.078125-0.8125-0.23438s-0.23438-0.42188-0.23438-0.79688v-1.2812h-0.46875v-0.67188h0.46875v-0.85938z"
         id="path14" />
    </symbol>
    <symbol
       id="j"
       overflow="visible">
      <path
         d="m2.5-2.5469v-1.6094h0.95312v4.1562h-0.95312v-0.4375c-0.13672 0.17969-0.28125 0.30859-0.4375 0.39062-0.15625 0.082031-0.33984 0.125-0.54688 0.125-0.375 0-0.68359-0.14453-0.92188-0.4375-0.23047-0.28906-0.34375-0.67188-0.34375-1.1406 0-0.45703 0.11328-0.83203 0.34375-1.125 0.23828-0.28906 0.54688-0.4375 0.92188-0.4375 0.19531 0 0.375 0.042969 0.53125 0.125 0.16406 0.085938 0.31641 0.21484 0.45312 0.39062zm-0.64062 1.9375c0.20703 0 0.36328-0.070313 0.46875-0.21875 0.11328-0.15625 0.17188-0.37891 0.17188-0.67188 0-0.28125-0.058594-0.49219-0.17188-0.64062-0.10547-0.15625-0.26172-0.23438-0.46875-0.23438-0.19922 0-0.35547 0.078125-0.46875 0.23438-0.10547 0.14844-0.15625 0.35938-0.15625 0.64062 0 0.29297 0.050781 0.51562 0.15625 0.67188 0.11328 0.14844 0.26953 0.21875 0.46875 0.21875z"
         id="path17" />
    </symbol>
    <symbol
       id="i"
       overflow="visible">
      <path
         d="m2.0469-0.60938c0.20703 0 0.36328-0.070313 0.46875-0.21875 0.11328-0.15625 0.17188-0.37891 0.17188-0.67188 0-0.28125-0.058594-0.49219-0.17188-0.64062-0.10547-0.15625-0.26172-0.23438-0.46875-0.23438-0.19922 0-0.35547 0.078125-0.46875 0.23438-0.10547 0.14844-0.15625 0.35938-0.15625 0.64062 0 0.29297 0.050781 0.51562 0.15625 0.67188 0.11328 0.14844 0.26953 0.21875 0.46875 0.21875zm-0.625-1.9375c0.125-0.17578 0.26562-0.30469 0.42188-0.39062 0.16406-0.082031 0.35156-0.125 0.5625-0.125 0.36328 0 0.66406 0.14844 0.90625 0.4375 0.23828 0.29297 0.35938 0.66797 0.35938 1.125 0 0.46875-0.12109 0.85156-0.35938 1.1406-0.24219 0.29297-0.54297 0.4375-0.90625 0.4375-0.21094 0-0.39844-0.042969-0.5625-0.125-0.15625-0.082031-0.29688-0.21094-0.42188-0.39062v0.4375h-0.96875v-4.1562h0.96875z"
         id="path20" />
    </symbol>
    <symbol
       id="h"
       overflow="visible">
      <path
         d="m0.0625-2.9844h0.95312l0.8125 2.0156 0.6875-2.0156h0.95312l-1.2656 3.2656c-0.125 0.33203-0.27344 0.56641-0.4375 0.70312-0.16797 0.13281-0.39062 0.20312-0.67188 0.20312h-0.54688v-0.64062h0.29688c0.16406 0 0.28516-0.027344 0.35938-0.078125 0.070313-0.054688 0.12891-0.14062 0.17188-0.26562l0.03125-0.09375z"
         id="path23" />
    </symbol>
    <symbol
       id="g"
       overflow="visible">
      <path
         d="m0.03125-3.9844h3.6719v0.78125h-1.3281v3.2031h-1.0312v-3.2031h-1.3125z"
         id="path26" />
    </symbol>
    <symbol
       id="t"
       overflow="visible">
      <path
         d="m0.1875-2.9844h0.9375l0.5 2.0625 0.5-2.0625h0.79688l0.5 2.0312 0.51562-2.0312h0.92188l-0.78125 2.9844h-1.0469l-0.5-2.0625-0.5 2.0625h-1.0469z"
         id="path29" />
    </symbol>
    <symbol
       id="s"
       overflow="visible">
      <path
         d="m2.7969-2.8906v0.71875c-0.21094-0.082031-0.40625-0.14453-0.59375-0.1875-0.1875-0.039063-0.37109-0.0625-0.54688-0.0625-0.17969 0-0.3125 0.023437-0.40625 0.0625-0.085938 0.042969-0.125 0.10938-0.125 0.20312 0 0.085938 0.03125 0.14844 0.09375 0.1875 0.070312 0.042969 0.19531 0.074219 0.375 0.09375l0.15625 0.015625c0.48828 0.0625 0.81641 0.16797 0.98438 0.3125 0.17578 0.13672 0.26562 0.35938 0.26562 0.67188s-0.12109 0.55469-0.35938 0.71875c-0.23047 0.15625-0.57812 0.23438-1.0469 0.23438-0.19922 0-0.40625-0.015625-0.625-0.046875-0.21094-0.03125-0.42188-0.078125-0.64062-0.14062v-0.71875c0.1875 0.085937 0.37891 0.15234 0.57812 0.20312 0.20703 0.042969 0.41406 0.0625 0.625 0.0625 0.1875 0 0.32812-0.023438 0.42188-0.078125 0.09375-0.050781 0.14062-0.125 0.14062-0.21875s-0.039062-0.16016-0.10938-0.20312c-0.0625-0.039062-0.1875-0.070312-0.375-0.09375l-0.17188-0.015625c-0.42969-0.050781-0.73047-0.14844-0.90625-0.29688-0.16797-0.14453-0.25-0.36328-0.25-0.65625 0-0.32031 0.10938-0.55469 0.32812-0.70312 0.21875-0.15625 0.55078-0.23438 1-0.23438 0.17578 0 0.35938 0.015625 0.54688 0.046875 0.19531 0.023437 0.41016 0.0625 0.64062 0.125z"
         id="path32" />
    </symbol>
    <symbol
       id="b"
       overflow="visible">
      <path
         d="m1.875-2.375c-0.21094 0-0.37109 0.078125-0.48438 0.23438-0.10547 0.14844-0.15625 0.35938-0.15625 0.64062 0 0.29297 0.050781 0.51562 0.15625 0.67188 0.11328 0.14844 0.27344 0.21875 0.48438 0.21875 0.20703 0 0.36719-0.070313 0.48438-0.21875 0.11328-0.15625 0.17188-0.37891 0.17188-0.67188 0-0.28125-0.058594-0.49219-0.17188-0.64062-0.11719-0.15625-0.27734-0.23438-0.48438-0.23438zm0-0.6875c0.51953 0 0.92188 0.14062 1.2031 0.42188 0.28906 0.27344 0.4375 0.65234 0.4375 1.1406 0 0.5-0.14844 0.89062-0.4375 1.1719-0.28125 0.27344-0.68359 0.40625-1.2031 0.40625-0.51172 0-0.91406-0.13281-1.2031-0.40625-0.29297-0.28125-0.4375-0.67188-0.4375-1.1719 0-0.48828 0.14453-0.86719 0.4375-1.1406 0.28906-0.28125 0.69141-0.42188 1.2031-0.42188z"
         id="path35" />
    </symbol>
    <symbol
       id="f"
       overflow="visible">
      <path
         d="m3.4688-1.8281v1.8281h-0.96875v-1.3906c0-0.25781-0.007812-0.4375-0.015625-0.53125-0.011719-0.10156-0.03125-0.17578-0.0625-0.21875-0.03125-0.0625-0.085937-0.10938-0.15625-0.14062-0.0625-0.039062-0.13281-0.0625-0.20312-0.0625-0.21094 0-0.37109 0.078125-0.48438 0.23438-0.10547 0.15625-0.15625 0.37109-0.15625 0.64062v1.4688h-0.96875v-2.9844h0.96875v0.4375c0.13281-0.17578 0.28516-0.30469 0.45312-0.39062 0.16406-0.082031 0.34375-0.125 0.53125-0.125 0.34375 0 0.60156 0.10938 0.78125 0.32812 0.1875 0.21094 0.28125 0.51172 0.28125 0.90625z"
         id="path38" />
    </symbol>
    <symbol
       id="r"
       overflow="visible">
      <path
         d="m2.4219-4.1562v0.625h-0.51562c-0.13672 0-0.23438 0.027344-0.29688 0.078125-0.054687 0.054687-0.078125 0.13672-0.078125 0.25v0.21875h0.82812v0.67188h-0.82812v2.3125h-0.95312v-2.3125h-0.46875v-0.67188h0.46875v-0.21875c0-0.32031 0.085937-0.5625 0.26562-0.71875 0.1875-0.15625 0.47266-0.23438 0.85938-0.23438z"
         id="path41" />
    </symbol>
    <symbol
       id="q"
       overflow="visible">
      <path
         d="m3.2344-2.5c0.11328-0.17578 0.25391-0.3125 0.42188-0.40625 0.16406-0.10156 0.35156-0.15625 0.5625-0.15625 0.33203 0 0.58594 0.10938 0.76562 0.32812 0.1875 0.21094 0.28125 0.51172 0.28125 0.90625v1.8281h-0.96875v-1.5625c0.007813-0.019531 0.015625-0.039062 0.015625-0.0625v-0.10938c0-0.21875-0.03125-0.375-0.09375-0.46875s-0.16406-0.14062-0.29688-0.14062c-0.1875 0-0.33594 0.078125-0.4375 0.23438-0.09375 0.14844-0.14062 0.35938-0.14062 0.64062v1.4688h-0.96875v-1.5625c0-0.33203-0.03125-0.54688-0.09375-0.64062-0.054688-0.09375-0.15234-0.14062-0.29688-0.14062-0.17969 0-0.32031 0.078125-0.42188 0.23438-0.09375 0.14844-0.14062 0.35938-0.14062 0.64062v1.4688h-0.96875v-2.9844h0.96875v0.4375c0.11328-0.17578 0.24219-0.30469 0.39062-0.39062 0.15625-0.082031 0.32812-0.125 0.51562-0.125 0.20703 0 0.39062 0.054688 0.54688 0.15625 0.15625 0.09375 0.27344 0.23047 0.35938 0.40625z"
         id="path44" />
    </symbol>
    <symbol
       id="p"
       overflow="visible">
      <path
         d="m3.4688-1.8281v1.8281h-0.96875v-1.3906c0-0.25781-0.007812-0.4375-0.015625-0.53125-0.011719-0.10156-0.03125-0.17578-0.0625-0.21875-0.03125-0.0625-0.085937-0.10938-0.15625-0.14062-0.0625-0.039062-0.13281-0.0625-0.20312-0.0625-0.21094 0-0.37109 0.078125-0.48438 0.23438-0.10547 0.15625-0.15625 0.37109-0.15625 0.64062v1.4688h-0.96875v-4.1562h0.96875v1.6094c0.13281-0.17578 0.28516-0.30469 0.45312-0.39062 0.16406-0.082031 0.34375-0.125 0.53125-0.125 0.34375 0 0.60156 0.10938 0.78125 0.32812 0.1875 0.21094 0.28125 0.51172 0.28125 0.90625z"
         id="path47" />
    </symbol>
    <symbol
       id="o"
       overflow="visible">
      <path
         d="m0.5-3.9844h1.1562l1.4375 2.7344v-2.7344h0.98438v3.9844h-1.1562l-1.4375-2.7344v2.7344h-0.98438z"
         id="path50" />
    </symbol>
    <symbol
       id="n"
       overflow="visible">
      <path
         d="m0.42188-1.1719v-1.8125h0.96875v0.29688 0.60938 0.48438c0 0.24219 0.003906 0.41797 0.015625 0.53125 0.007812 0.10547 0.03125 0.17969 0.0625 0.21875 0.039062 0.0625 0.09375 0.11719 0.15625 0.15625 0.0625 0.03125 0.13281 0.046875 0.21875 0.046875 0.19531 0 0.35156-0.078125 0.46875-0.23438 0.11328-0.15625 0.17188-0.36719 0.17188-0.64062v-1.4688h0.95312v2.9844h-0.95312v-0.4375c-0.14844 0.17969-0.30469 0.30859-0.46875 0.39062-0.15625 0.082031-0.33594 0.125-0.53125 0.125-0.34375 0-0.60938-0.10156-0.79688-0.3125-0.17969-0.21875-0.26562-0.53125-0.26562-0.9375z"
         id="path53" />
    </symbol>
    <symbol
       id="m"
       overflow="visible">
      <path
         d="m0.5-3.9844h1.7031c0.50781 0 0.89844 0.11719 1.1719 0.34375 0.26953 0.21875 0.40625 0.53906 0.40625 0.95312 0 0.41797-0.13672 0.74219-0.40625 0.96875-0.27344 0.21875-0.66406 0.32812-1.1719 0.32812h-0.67188v1.3906h-1.0312zm1.0312 0.75v1.1094h0.5625c0.19531 0 0.34766-0.046875 0.45312-0.14062 0.11328-0.10156 0.17188-0.24219 0.17188-0.42188 0-0.17578-0.058594-0.3125-0.17188-0.40625-0.10547-0.09375-0.25781-0.14062-0.45312-0.14062z"
         id="path56" />
    </symbol>
    <symbol
       id="l"
       overflow="visible">
      <path
         d="m0.45312-2.9844h0.96875v2.9375c0 0.39453-0.10156 0.69531-0.29688 0.90625-0.1875 0.21875-0.46484 0.32812-0.82812 0.32812h-0.48438v-0.64062h0.17188c0.17578 0 0.29688-0.042969 0.35938-0.125 0.070312-0.074219 0.10938-0.23047 0.10938-0.46875zm0-1.1719h0.96875v0.78125h-0.96875z"
         id="path59" />
    </symbol>
    <symbol
       id="k"
       overflow="visible">
      <path
         d="m2.875-2.8906v0.76562c-0.125-0.082031-0.25781-0.14453-0.39062-0.1875-0.13672-0.039062-0.27344-0.0625-0.40625-0.0625-0.27344 0-0.48047 0.078125-0.625 0.23438-0.14844 0.15625-0.21875 0.37109-0.21875 0.64062 0 0.28125 0.070313 0.5 0.21875 0.65625 0.14453 0.15625 0.35156 0.23438 0.625 0.23438 0.14453 0 0.28516-0.019531 0.42188-0.0625 0.13281-0.039063 0.25781-0.10938 0.375-0.20312v0.78125c-0.14844 0.0625-0.29688 0.10156-0.45312 0.125-0.15625 0.03125-0.3125 0.046875-0.46875 0.046875-0.54297 0-0.96484-0.13281-1.2656-0.40625-0.30469-0.28125-0.45312-0.67188-0.45312-1.1719 0-0.48828 0.14844-0.86719 0.45312-1.1406 0.30078-0.28125 0.72266-0.42188 1.2656-0.42188 0.15625 0 0.3125 0.015625 0.46875 0.046875 0.15625 0.023437 0.30469 0.0625 0.45312 0.125z"
         id="path62" />
    </symbol>
  </defs>
  <g
     id="g159"
     style="fill:#0200ff;fill-opacity:1">
    <path
       d="m 242.3,288.42 h -35.797 c -4.1328,0 -7.4844,3.3477 -7.4922,7.4805 v 45.348 c 0.15234,4.0234 3.4609,7.207 7.4883,7.207 4.0234,0 7.332,-3.1836 7.4844,-7.207 v -37.867 h 28.316 c 4.1328,0 7.4844,-3.3477 7.4844,-7.4805 0,-4.1328 -3.3516,-7.4805 -7.4844,-7.4805 z"
       id="path67"
       style="fill:#0200ff;fill-opacity:1" />
    <path
       d="m 556.98,183.39 c -2.4492,-2.9648 -5.4141,-5.457 -8.75,-7.3633 l -0.60156,-0.35156 v 0.004 c -0.12891,-1 -0.18359,-2.0039 -0.16406,-3.0078 V 58.291247 58.158437 c 0.008,-0.07031 0.008,-0.14453 0,-0.21875 -0.0117,-0.30078 -0.0391,-0.60547 -0.0859,-0.90625 -0.008,-0.04297 -0.008,-0.08594 0,-0.13281 -0.0625,-0.37109 -0.16016,-0.73828 -0.28516,-1.0938 0.004,-0.01953 0.004,-0.04297 0,-0.0625 v -0.07813 c -0.24609,-0.66406 -0.58594,-1.2891 -1.0078,-1.8594 l -0.12109,-0.16406 c -0.20703,-0.26172 -0.4375,-0.51563 -0.66797,-0.75391 l -0.12109,-0.09766 h 0.004 c -0.22656,-0.21094 -0.46094,-0.41016 -0.71094,-0.59375 l -0.12109,-0.08594 c -0.27734,-0.19922 -0.57031,-0.375 -0.875,-0.52344 L 543.32,51.509907 c -0.29687,-0.14453 -0.60547,-0.26953 -0.91797,-0.37109 h -0.0547 c -0.32812,-0.10938 -0.66406,-0.19141 -1.0078,-0.24219 h -0.21875 c -0.35938,-0.05859 -0.72656,-0.08984 -1.0938,-0.08594 h -115.42 c -1.7109,0.0039 -3.3711,0.58984 -4.7031,1.6602 l -81.41,65.758003 c -0.19531,0.16406 -0.39453,0.33984 -0.57813,0.52344 l -0.12109,0.13281 c -0.14062,0.14062 -0.27344,0.29688 -0.40625,0.44922 l -0.15234,0.21875 -0.30469,0.42578 c -0.0508,0.0742 -0.0977,0.15234 -0.14063,0.23047 -0.0859,0.15234 -0.17578,0.30469 -0.25,0.46875 h -0.004 c -0.0391,0.0742 -0.0781,0.15234 -0.10938,0.23047 -0.0781,0.16406 -0.15234,0.33984 -0.21875,0.51563 -0.0664,0.17578 -0.0547,0.14062 -0.0781,0.21875 -0.0234,0.0781 -0.10938,0.37109 -0.16406,0.55859 l 0.004,-0.004 c -0.0156,0.0742 -0.0312,0.14844 -0.0547,0.21875 -0.0469,0.19922 -0.0781,0.40234 -0.10156,0.60156 v 0.19531 0.80859 49.359 l -65.023,0.004 c -1.9102,0.0234 -3.75,0.73828 -5.1719,2.0156 l -92.805,85.039 -0.0859,0.0781 -0.35156,0.35937 -0.17578,0.19531 c -0.10938,0.12109 -0.20703,0.25 -0.30469,0.38281 l -0.16406,0.20703 c -0.0977,0.14062 -0.1875,0.28516 -0.27344,0.4375 -0.0352,0.0703 -0.0781,0.13281 -0.12109,0.19922 -0.0859,0.16406 -0.17578,0.32812 -0.25,0.50391 l -0.0781,0.16406 v -0.004 c -0.0859,0.19922 -0.16406,0.39844 -0.23047,0.60156 v 0.10938 c -0.0703,0.22266 -0.12891,0.44531 -0.17578,0.66797 v 0.0664 c 0,0.23047 -0.0781,0.46875 -0.10937,0.71094 v 0.77734 112.66 c -20.465,3.75 -32.473,12.109 -32.473,22.883 0,17.148 28.996,24.949 55.934,24.949 v -0.004 c 7.0039,0.0117 13.996,-0.52734 20.914,-1.6172 14.492,17.742 55.059,25.734 91.359,25.734 48.125,0 96.82,-13.629 96.82,-39.68 0,-0.65625 -0.0312,-1.3125 -0.0976,-1.9688 26.895,-0.80078 54.238,-8.9805 54.238,-25.891 0,-2.3477 -0.5625,-4.6602 -1.6406,-6.7461 36.543,-3.0312 68.82,-15.094 68.82,-35.492 0,-23.801 -43.914,-36.246 -87.293,-36.246 -2.4727,0 -4.9531,0.043 -7.4492,0.13281 v -32.27 c 6.6484,-10.258 18.309,-9.5156 33.906,-7.2969 3.8281,0.54688 7.4375,1.0938 10.785,1.2148 18.594,0.86328 34.344,-15.945 41.168,-31.871 3.7422,-8.75 12.523,-10.859 24.512,-12.918 l 1.3359,-0.23047 h -0.004 c 8.9609,-1.7578 16.324,-8.1094 19.383,-16.711 1.3633,-3.5312 1.7344,-7.3633 1.0781,-11.09 -0.66016,-3.7266 -2.3203,-7.2031 -4.8086,-10.051 z M 427.25,65.79 h 91.559 l -62.879,50.781 h -91.559 z m -153.62,122.6 h 128.88 l -76.168,70.086 -129.24,0.004 z m 235.72,152.34 c 0,7.2188 -25.527,21.285 -72.328,21.285 h -2.2852 -1.4102 l -0.004,-0.004 c -3.6953,-0.0703 -6.8906,2.5703 -7.5195,6.2148 -0.625,3.6445 1.5078,7.1992 5.0156,8.3672 8.6289,2.8867 11.156,5.9375 11.363,6.3125 -0.91797,3.0742 -15.816,11.156 -43.859,11.156 -2.1875,0 -4.375,-0.0781 -6.5625,-0.17578 -2.9922,-0.16797 -5.7891,1.4844 -7.0859,4.1875 -1.3008,2.6992 -0.87109,5.9102 1.0938,8.1719 1.2578,1.2539 2.0312,2.9102 2.1875,4.6797 0,10.086 -31.883,24.719 -81.855,24.719 -43.289,0 -75.84,-11.605 -81.156,-22.344 -1.2617,-2.5508 -3.8594,-4.168 -6.707,-4.168 -0.51562,0 -1.0352,0.0547 -1.5391,0.16406 -7.5312,1.5 -15.195,2.2344 -22.871,2.1875 -25.297,0 -39.059,-6.8906 -40.875,-9.9766 1.2344,-1.9258 8.75,-6.9023 25.824,-9.0547 3.7461,-0.46875 6.5586,-3.6523 6.5625,-7.4258 v -111.59 h 138.5 v 113.16 c 0,4.1328 3.3516,7.4805 7.4844,7.4805 4.1289,0 7.4805,-3.3477 7.4805,-7.4805 v -119.29 l 75.359,-69.344 v 114.54 c 0.004,2.0742 0.86719,4.0547 2.3867,5.4688 1.5195,1.4141 3.5586,2.1328 5.6289,1.9883 4.9336,-0.35156 9.9297,-0.52344 14.844,-0.52344 46.801,0 72.328,14.066 72.328,21.285 z m 37.285,-141.21 c -1.2617,3.5391 -4.2578,6.1836 -7.9297,7 l -1.3008,0.21875 c -11.352,1.9453 -28.504,4.8984 -35.742,21.777 -4.8008,11.199 -15.5,22.828 -26.129,22.828 h -0.63281 c -2.6016,-0.10938 -5.8633,-0.57813 -9.3203,-1.0938 -10.367,-1.4883 -24.367,-3.4766 -36.008,2.4062 v -71.754 c -0.008,-4.1289 -3.3516,-7.4727 -7.4805,-7.4805 h -71.41 v -41.879 h 100.41 v 63 c 0.0977,3.8398 1.0078,23.461 9.625,32.812 2.793,3.0469 7.5273,3.2539 10.574,0.45703 3.0469,-2.793 3.2539,-7.5273 0.46094,-10.574 -3.6094,-3.9375 -5.4688,-15.891 -5.6992,-22.969 v -66.719 l 66.457,-53.672 v 98.711 c 0,9.6016 2.7031,12.984 8.0078,16.176 h -0.004 c 2.0508,1.1484 3.8555,2.6836 5.3164,4.5195 1.4609,1.7422 1.7773,4.1758 0.80859,6.2344 z"
       id="path69"
       style="fill:#0200ff;fill-opacity:1" />
    <path
       d="m 328.12,465.8 c -23.352,0 -46.91,6.7031 -46.91,21.688 0,14.984 23.559,21.688 46.91,21.688 23.351,0 46.898,-6.7148 46.898,-21.688 0,-14.969 -23.547,-21.688 -46.898,-21.688 z m 0,28.438 c -17.5,0 -28.262,-4.2227 -31.336,-6.7148 3.0742,-2.5039 13.812,-6.7266 31.336,-6.7266 17.524,0 28.25,4.2227 31.324,6.7266 -3.0625,2.4727 -13.824,6.6836 -31.324,6.6836 z"
       id="path71"
       style="fill:#0200ff;fill-opacity:1" />
    <path
       d="m 481.03,411.3 c -31.992,0 -66.434,8.9922 -66.434,28.734 0,19.742 34.441,28.723 66.434,28.723 31.993,0 66.434,-8.9922 66.434,-28.723 0,-19.734 -34.43,-28.734 -66.434,-28.734 z m 0,42.492 c -33.766,0 -51.461,-10.227 -51.461,-13.758 0,-3.531 17.695,-13.77 51.461,-13.77 33.766,0 51.473,10.227 51.473,13.77 0,3.543 -17.699,13.758 -51.473,13.758 z"
       id="path73"
       style="fill:#0200ff;fill-opacity:1" />
  </g>
</svg>
